<svg xmlns="http://www.w3.org/2000/svg" xmlns:xlink="http://www.w3.org/1999/xlink" id="Capa_1" x="0px" y="0px" width="144px" height="80px" viewBox="0 0 144 80" style="enable-background:new 0 0 144 80;" xml:space="preserve">
<style type="text/css">
	.st0{fill:#FFFFFF;}
	.st1{fill:none;}
</style>
<g>
	<path class="st0" d="M49.7,63.5h-1.8v-2.2c5.8-0.2,9.9-1.5,13.7-4.5c3.6-2.9,6-7.1,6.9-11.3c0.1-0.5,0.2-1.1,0.3-2   c-5.6,4-7.7,5-11,5c-7.3,0-12.6-6.4-12.6-15.2c0-9.6,7.1-17,16.3-17c9.5,0,15.3,7.3,15.3,19.5C76.7,51.7,65.2,63.5,49.7,63.5    M65.2,21.8c-1.4-1.9-3.6-3.1-5.6-3.1c-4.5,0-7.5,4.4-7.5,11c0,8.5,3.8,14.2,9.5,14.2c2.4,0,4.4-0.9,7.4-3c0.1-1.5,0.1-2.7,0.1-3.5   C69.1,31.3,67.4,24.9,65.2,21.8"></path>
	<path class="st0" d="M41.7,44.6c-1.6,0-1.8,0.1-1.8,0.7v0.4v0.7v3.3l0.1,2.6v2.2v0.7c0,1.6,0.1,2.3,0.4,2.6l0.3,0.3   c0.2,0.2,0.3,0.5,0.3,0.8c0,0.5-0.3,0.9-1.2,1.3c-2,0.8-6.2,2-10.8,2.9c-2.1,0.5-4.4,0.7-6.7,0.7C8.7,63.7,0,55.3,0,41.9   c0-14.2,11.4-24.3,27.6-24.3c4.6,0,9.3,0.9,12.7,2.5l-0.8,4.5c-0.3,1.5-0.5,1.8-1.1,1.8c-0.7,0-1-0.4-1-1.2   c-0.1-2.5-5.2-4.8-10.6-4.8c-11.2,0-18.8,8-18.8,19.9c0,12.3,6.8,20.6,16.8,20.6c2.7,0,5-0.5,7.4-1.6v-1c0-12.3-0.3-13.7-2.5-13.7   h-1h-2.9v-2.3h18v2.3H41.7z"></path>
	<path class="st0" d="M83.4,39.2h1.1v3.3c0,0.4,0,0.6,0.1,0.8c0.1,0.3,0.4,0.4,0.9,0.4c0.4,0,0.7-0.1,0.9-0.4   c0.1-0.2,0.1-0.4,0.1-0.8v-3.3h1.1v3.3c0,0.6-0.1,1-0.3,1.3c-0.3,0.6-0.9,0.9-1.9,0.9c-0.9,0-1.5-0.3-1.9-0.9   c-0.2-0.3-0.3-0.8-0.3-1.3V39.2z"></path>
	<polygon class="st0" points="88.8,39.2 90,39.2 92.1,42.9 92.1,39.2 93.1,39.2 93.1,44.5 92,44.5 89.9,40.7 89.9,44.5 88.8,44.5     "></polygon>
	<rect x="94.2" y="39.2" class="st0" width="1.1" height="5.3"></rect>
	<polygon class="st0" points="99.5,39.2 100.7,39.2 98.9,44.5 97.8,44.5 96,39.2 97.2,39.2 98.4,43.2  "></polygon>
	<polygon class="st0" points="105.3,40.1 102.5,40.1 102.5,41.2 105.1,41.2 105.1,42.2 102.5,42.2 102.5,43.5 105.5,43.5    105.5,44.5 101.4,44.5 101.4,39.2 105.3,39.2  "></polygon>
	<path class="st0" d="M109.8,39.3c0.2,0.1,0.4,0.2,0.5,0.4c0.1,0.1,0.2,0.3,0.3,0.4c0.1,0.2,0.1,0.3,0.1,0.6c0,0.3-0.1,0.5-0.2,0.7   c-0.1,0.2-0.3,0.4-0.6,0.5c0.2,0.1,0.4,0.2,0.5,0.4c0.1,0.2,0.2,0.5,0.2,0.8v0.4c0,0.2,0,0.4,0,0.5c0,0.1,0.1,0.2,0.2,0.3v0.1h-1.2   c0-0.1-0.1-0.2-0.1-0.3c0-0.1,0-0.3,0-0.5l0-0.5c0-0.3-0.1-0.6-0.2-0.7c-0.1-0.1-0.3-0.2-0.6-0.2h-1.1v2.1h-1.1v-5.3h2.5   C109.3,39.2,109.6,39.2,109.8,39.3 M107.5,40.1v1.4h1.2c0.2,0,0.4,0,0.5-0.1c0.2-0.1,0.3-0.3,0.3-0.6c0-0.3-0.1-0.5-0.3-0.6   c-0.1-0.1-0.3-0.1-0.5-0.1H107.5z"></path>
	<path class="st0" d="M112.5,42.8c0,0.2,0.1,0.4,0.2,0.5c0.2,0.2,0.5,0.3,0.9,0.3c0.3,0,0.5,0,0.7-0.1c0.3-0.1,0.5-0.3,0.5-0.6   c0-0.2-0.1-0.3-0.2-0.4c-0.2-0.1-0.4-0.2-0.7-0.2l-0.6-0.1c-0.6-0.1-1-0.3-1.2-0.4c-0.4-0.2-0.5-0.6-0.5-1.1c0-0.5,0.2-0.9,0.5-1.2   c0.4-0.3,0.9-0.5,1.5-0.5c0.6,0,1.1,0.1,1.5,0.4c0.4,0.3,0.6,0.7,0.6,1.3h-1.1c0-0.3-0.2-0.5-0.4-0.7c-0.2-0.1-0.4-0.1-0.7-0.1   c-0.3,0-0.5,0.1-0.7,0.2c-0.2,0.1-0.3,0.3-0.3,0.5c0,0.2,0.1,0.3,0.3,0.4c0.1,0.1,0.3,0.1,0.7,0.2l0.9,0.2c0.4,0.1,0.7,0.2,0.9,0.4   c0.3,0.3,0.5,0.6,0.5,1.1c0,0.5-0.2,0.9-0.6,1.2c-0.4,0.3-0.9,0.5-1.6,0.5c-0.7,0-1.3-0.2-1.7-0.5c-0.4-0.3-0.6-0.7-0.6-1.3H112.5z   "></path>
	<rect x="116.7" y="39.2" class="st0" width="1.1" height="5.3"></rect>
	<path class="st0" d="M122,39.3c0.4,0.1,0.7,0.3,0.9,0.7c0.2,0.3,0.3,0.5,0.4,0.9c0.1,0.3,0.1,0.6,0.1,0.9c0,0.7-0.1,1.3-0.4,1.8   c-0.4,0.7-1,1-1.8,1h-2.3v-5.3h2.3C121.6,39.2,121.8,39.2,122,39.3 M120,40.1v3.5h1c0.5,0,0.9-0.3,1.1-0.8c0.1-0.3,0.2-0.6,0.2-1   c0-0.5-0.1-1-0.3-1.2c-0.2-0.3-0.5-0.4-1-0.4H120z"></path>
	<path class="st0" d="M125.6,39.2h1.3l1.9,5.3h-1.2l-0.3-1.1h-2l-0.4,1.1h-1.2L125.6,39.2z M125.5,42.5h1.4l-0.7-2.1L125.5,42.5z"></path>
	<path class="st0" d="M132.6,39.3c0.4,0.1,0.7,0.3,0.9,0.7c0.2,0.3,0.3,0.5,0.4,0.9c0.1,0.3,0.1,0.6,0.1,0.9c0,0.7-0.1,1.3-0.4,1.8   c-0.4,0.7-1,1-1.8,1h-2.3v-5.3h2.3C132.1,39.2,132.4,39.2,132.6,39.3 M130.6,40.1v3.5h1c0.5,0,0.9-0.3,1.1-0.8   c0.1-0.3,0.2-0.6,0.2-1c0-0.5-0.1-1-0.3-1.2c-0.2-0.3-0.5-0.4-1-0.4H130.6z"></path>
	<polygon class="st0" points="138.8,40.1 136,40.1 136,41.2 138.6,41.2 138.6,42.2 136,42.2 136,43.5 139,43.5 139,44.5 134.9,44.5    134.9,39.2 138.8,39.2  "></polygon>
	<path class="st0" d="M140.7,42.8c0,0.2,0.1,0.4,0.2,0.5c0.2,0.2,0.5,0.3,0.9,0.3c0.3,0,0.5,0,0.7-0.1c0.3-0.1,0.5-0.3,0.5-0.6   c0-0.2-0.1-0.3-0.2-0.4c-0.2-0.1-0.4-0.2-0.7-0.2l-0.6-0.1c-0.6-0.1-1-0.3-1.2-0.4c-0.4-0.2-0.5-0.6-0.5-1.1c0-0.5,0.2-0.9,0.5-1.2   c0.4-0.3,0.9-0.5,1.5-0.5c0.6,0,1.1,0.1,1.5,0.4c0.4,0.3,0.6,0.7,0.6,1.3h-1.1c0-0.3-0.2-0.5-0.4-0.7c-0.2-0.1-0.4-0.1-0.7-0.1   c-0.3,0-0.5,0.1-0.7,0.2c-0.2,0.1-0.3,0.3-0.3,0.5c0,0.2,0.1,0.3,0.3,0.4c0.1,0.1,0.3,0.1,0.7,0.2l0.9,0.2c0.4,0.1,0.7,0.2,0.9,0.4   c0.3,0.3,0.5,0.6,0.5,1.1c0,0.5-0.2,0.9-0.6,1.2c-0.4,0.3-0.9,0.5-1.6,0.5c-0.7,0-1.3-0.2-1.7-0.5c-0.4-0.3-0.6-0.7-0.6-1.3H140.7z   "></path>
	<path class="st0" d="M87,51c-0.3,0.3-0.8,0.4-1.3,0.4h-1.1v1.9h-1.1V48h2.3c0.5,0,0.9,0.1,1.3,0.4c0.3,0.3,0.5,0.7,0.5,1.3   C87.5,50.3,87.3,50.8,87,51 M86.1,49.1c-0.1-0.1-0.3-0.2-0.6-0.2h-1v1.6h1c0.3,0,0.4-0.1,0.6-0.2c0.1-0.1,0.2-0.3,0.2-0.6   C86.4,49.4,86.3,49.2,86.1,49.1"></path>
	<path class="st0" d="M88.3,48h1.1v3.3c0,0.4,0,0.6,0.1,0.8c0.1,0.3,0.4,0.4,0.9,0.4c0.4,0,0.7-0.1,0.9-0.4c0.1-0.2,0.1-0.4,0.1-0.8   V48h1.1v3.3c0,0.6-0.1,1-0.3,1.3c-0.3,0.6-0.9,0.9-1.9,0.9c-0.9,0-1.5-0.3-1.9-0.9c-0.2-0.3-0.3-0.8-0.3-1.3V48z M91.7,46.5   l-1.1,1.1h-0.7l0.7-1.1H91.7z"></path>
	<path class="st0" d="M97.7,48.6c0.2,0.2,0.2,0.5,0.2,0.8c0,0.3-0.1,0.6-0.2,0.8c-0.1,0.1-0.2,0.2-0.4,0.3c0.3,0.1,0.5,0.3,0.6,0.5   c0.1,0.2,0.2,0.5,0.2,0.8c0,0.3-0.1,0.6-0.2,0.8c-0.1,0.2-0.2,0.3-0.4,0.4c-0.2,0.1-0.4,0.2-0.6,0.3c-0.2,0-0.5,0.1-0.8,0.1h-2.4   V48h2.6C96.9,48,97.4,48.2,97.7,48.6 M94.8,48.9v1.2h1.3c0.2,0,0.4,0,0.6-0.1c0.1-0.1,0.2-0.2,0.2-0.5c0-0.2-0.1-0.4-0.3-0.5   c-0.2-0.1-0.4-0.1-0.6-0.1H94.8z M94.8,51v1.4h1.3c0.2,0,0.4,0,0.5-0.1c0.2-0.1,0.3-0.3,0.3-0.7c0-0.3-0.1-0.5-0.3-0.6   C96.5,51,96.3,51,96.1,51H94.8z"></path>
	<polygon class="st0" points="99.1,48 100.2,48 100.2,52.4 102.8,52.4 102.8,53.3 99.1,53.3  "></polygon>
	<rect x="103.5" y="48" class="st0" width="1.1" height="5.3"></rect>
	<path class="st0" d="M106.3,48.6c0.4-0.4,1-0.7,1.6-0.7c0.9,0,1.5,0.3,1.9,0.9c0.2,0.3,0.3,0.7,0.4,1h-1.1   c-0.1-0.3-0.2-0.4-0.3-0.6c-0.2-0.2-0.5-0.3-0.9-0.3c-0.4,0-0.7,0.2-0.9,0.5c-0.2,0.3-0.3,0.8-0.3,1.4c0,0.6,0.1,1,0.4,1.3   c0.2,0.3,0.5,0.4,0.9,0.4c0.4,0,0.7-0.1,0.9-0.4c0.1-0.1,0.2-0.3,0.3-0.6h1.1c-0.1,0.6-0.3,1.1-0.7,1.4c-0.4,0.4-0.9,0.5-1.5,0.5   c-0.8,0-1.4-0.2-1.8-0.7c-0.4-0.5-0.6-1.2-0.6-2C105.6,49.8,105.8,49.1,106.3,48.6"></path>
	<path class="st0" d="M112.5,48h1.3l1.9,5.3h-1.2l-0.4-1.1h-2l-0.4,1.1h-1.2L112.5,48z M112.4,51.3h1.4l-0.7-2.1L112.4,51.3z"></path>
	<path class="st0" d="M117.1,51.7c0,0.2,0.1,0.4,0.2,0.5c0.2,0.2,0.5,0.3,0.9,0.3c0.3,0,0.5,0,0.7-0.1c0.3-0.1,0.5-0.3,0.5-0.6   c0-0.2-0.1-0.3-0.2-0.4c-0.2-0.1-0.4-0.2-0.7-0.2l-0.6-0.1c-0.6-0.1-1-0.3-1.2-0.4c-0.4-0.2-0.5-0.6-0.5-1.1c0-0.5,0.2-0.9,0.5-1.2   c0.4-0.3,0.9-0.5,1.5-0.5c0.6,0,1,0.1,1.5,0.4c0.4,0.3,0.6,0.7,0.6,1.3h-1.1c0-0.3-0.2-0.5-0.4-0.7c-0.2-0.1-0.4-0.1-0.7-0.1   c-0.3,0-0.5,0.1-0.7,0.2c-0.2,0.1-0.3,0.3-0.3,0.5c0,0.2,0.1,0.3,0.3,0.4c0.1,0.1,0.3,0.1,0.7,0.2l0.9,0.2c0.4,0.1,0.7,0.2,0.9,0.4   c0.3,0.3,0.5,0.6,0.5,1.1c0,0.5-0.2,0.9-0.6,1.2c-0.4,0.3-0.9,0.5-1.6,0.5c-0.7,0-1.2-0.2-1.7-0.5c-0.4-0.3-0.6-0.7-0.6-1.3H117.1z   "></path>
	<polygon class="st0" points="83.4,56.9 84.6,56.9 86.7,60.6 86.7,56.9 87.7,56.9 87.7,62.2 86.6,62.2 84.4,58.4 84.4,62.2    83.4,62.2  "></polygon>
	<path class="st0" d="M92.9,61.7c-0.4,0.4-1,0.6-1.7,0.6c-0.8,0-1.3-0.2-1.7-0.6c-0.5-0.5-0.8-1.2-0.8-2.2c0-1,0.3-1.7,0.8-2.2   c0.4-0.4,1-0.6,1.7-0.6c0.8,0,1.3,0.2,1.7,0.6c0.5,0.5,0.8,1.2,0.8,2.2C93.7,60.5,93.5,61.2,92.9,61.7 M92.2,60.9   c0.3-0.3,0.4-0.8,0.4-1.4c0-0.6-0.1-1.1-0.4-1.4c-0.3-0.3-0.6-0.5-1-0.5c-0.4,0-0.8,0.2-1.1,0.5c-0.3,0.3-0.4,0.8-0.4,1.4   c0,0.6,0.1,1.1,0.4,1.4c0.3,0.3,0.6,0.5,1.1,0.5C91.6,61.4,92,61.2,92.2,60.9"></path>
	<polygon class="st0" points="100.6,57.8 97.8,57.8 97.8,58.9 100.3,58.9 100.3,59.9 97.8,59.9 97.8,61.2 100.7,61.2 100.7,62.2    96.7,62.2 96.7,56.9 100.6,56.9  "></polygon>
	<path class="st0" d="M102.4,60.5c0,0.2,0.1,0.4,0.2,0.5c0.2,0.2,0.5,0.3,0.9,0.3c0.3,0,0.5,0,0.7-0.1c0.3-0.1,0.5-0.3,0.5-0.6   c0-0.2-0.1-0.3-0.2-0.4c-0.2-0.1-0.4-0.2-0.7-0.3l-0.6-0.1c-0.6-0.1-1-0.3-1.2-0.4c-0.4-0.2-0.5-0.6-0.5-1.1c0-0.5,0.2-0.9,0.5-1.2   c0.4-0.3,0.9-0.5,1.5-0.5c0.6,0,1.1,0.1,1.5,0.4c0.4,0.3,0.6,0.7,0.6,1.3h-1.1c0-0.3-0.2-0.5-0.4-0.7c-0.2-0.1-0.4-0.1-0.7-0.1   c-0.3,0-0.5,0.1-0.7,0.2c-0.2,0.1-0.3,0.3-0.3,0.5c0,0.2,0.1,0.3,0.3,0.4c0.1,0.1,0.3,0.1,0.7,0.2l0.9,0.2c0.4,0.1,0.7,0.2,0.9,0.4   c0.3,0.3,0.5,0.6,0.5,1.1c0,0.5-0.2,0.9-0.6,1.2c-0.4,0.3-0.9,0.5-1.6,0.5c-0.7,0-1.3-0.2-1.7-0.5c-0.4-0.3-0.6-0.7-0.6-1.3H102.4z   "></path>
	<polygon class="st0" points="110.5,56.9 110.5,57.8 108.9,57.8 108.9,62.2 107.8,62.2 107.8,57.8 106.2,57.8 106.2,56.9  "></polygon>
	<path class="st0" d="M112.2,56.9h1.3l1.9,5.3h-1.2l-0.4-1.1h-2l-0.4,1.1h-1.2L112.2,56.9z M112.1,60.2h1.4l-0.7-2.1L112.1,60.2z"></path>
	<polygon class="st0" points="119.4,56.9 119.4,57.8 117.8,57.8 117.8,62.2 116.7,62.2 116.7,57.8 115.1,57.8 115.1,56.9  "></polygon>
	<path class="st0" d="M121,56.9h1.3l1.9,5.3H123l-0.4-1.1h-2l-0.4,1.1h-1.2L121,56.9z M121,60.2h1.4l-0.7-2.1L121,60.2z"></path>
	<polygon class="st0" points="124.9,56.9 126,56.9 126,61.2 128.7,61.2 128.7,62.2 124.9,62.2  "></polygon>
	<polygon class="st0" points="133.3,57.8 130.5,57.8 130.5,58.9 133.1,58.9 133.1,59.9 130.5,59.9 130.5,61.2 133.5,61.2    133.5,62.2 129.4,62.2 129.4,56.9 133.3,56.9  "></polygon>
	<path class="st0" d="M135.2,60.5c0,0.2,0.1,0.4,0.2,0.5c0.2,0.2,0.5,0.3,0.9,0.3c0.3,0,0.5,0,0.7-0.1c0.3-0.1,0.5-0.3,0.5-0.6   c0-0.2-0.1-0.3-0.2-0.4c-0.2-0.1-0.4-0.2-0.7-0.3l-0.6-0.1c-0.6-0.1-1-0.3-1.2-0.4c-0.4-0.2-0.5-0.6-0.5-1.1c0-0.5,0.2-0.9,0.5-1.2   c0.4-0.3,0.9-0.5,1.5-0.5c0.6,0,1,0.1,1.5,0.4c0.4,0.3,0.6,0.7,0.6,1.3h-1.1c0-0.3-0.2-0.5-0.4-0.7c-0.2-0.1-0.4-0.1-0.7-0.1   c-0.3,0-0.5,0.1-0.7,0.2c-0.2,0.1-0.3,0.3-0.3,0.5c0,0.2,0.1,0.3,0.3,0.4c0.1,0.1,0.3,0.1,0.7,0.2l0.9,0.2c0.4,0.1,0.7,0.2,0.9,0.4   c0.3,0.3,0.5,0.6,0.5,1.1c0,0.5-0.2,0.9-0.6,1.2c-0.4,0.3-0.9,0.5-1.6,0.5c-0.7,0-1.2-0.2-1.7-0.5c-0.4-0.3-0.6-0.7-0.6-1.3H135.2z   "></path>
	<rect x="0" y="16.3" class="st1" width="144" height="47.5"></rect>
</g>
</svg>